<svg width="61" height="61" viewBox="0 0 61 61" fill="none" xmlns="http://www.w3.org/2000/svg">
<rect width="61" height="61" rx="30.5" fill="url(#paint0_linear_80_2)"/>
<mask id="mask0_80_2" style="mask-type:alpha" maskUnits="userSpaceOnUse" x="0" y="0" width="61" height="61">
<rect width="61" height="61" rx="30.5" fill="url(#paint1_linear_80_2)"/>
</mask>
<g mask="url(#mask0_80_2)">
<path d="M42.293 41.3675L63.9998 63.0743" stroke="url(#paint2_linear_80_2)" stroke-width="8" stroke-linecap="round"/>
</g>
<circle cx="30" cy="30" r="15" stroke="white" stroke-width="8"/>
<path d="M26 35.3071V24.9548C26 24.1392 26.9238 23.6666 27.5852 24.1439L35.7191 30.0135C36.3143 30.443 36.2594 31.346 35.6166 31.7002L27.4827 36.1829C26.8162 36.5502 26 36.0681 26 35.3071Z" fill="url(#paint3_linear_80_2)"/>
<defs>
<linearGradient id="paint0_linear_80_2" x1="30.5" y1="0" x2="30.5" y2="61" gradientUnits="userSpaceOnUse">
<stop stop-color="#F87946"/>
<stop offset="1" stop-color="#F64E03"/>
</linearGradient>
<linearGradient id="paint1_linear_80_2" x1="30.5" y1="0" x2="30.5" y2="61" gradientUnits="userSpaceOnUse">
<stop stop-color="#F87946"/>
<stop offset="1" stop-color="#F64E03"/>
</linearGradient>
<linearGradient id="paint2_linear_80_2" x1="41.9394" y1="41.7211" x2="63.6462" y2="63.4279" gradientUnits="userSpaceOnUse">
<stop offset="0.163479" stop-color="white"/>
<stop offset="1" stop-color="#E9E9E9"/>
</linearGradient>
<linearGradient id="paint3_linear_80_2" x1="26.6111" y1="29.2635" x2="33.1561" y2="36.7202" gradientUnits="userSpaceOnUse">
<stop stop-color="white"/>
<stop offset="1" stop-color="#E9E8E8"/>
</linearGradient>
</defs>
</svg>
