<svg width="309" height="61" viewBox="0 0 309 61" fill="none" xmlns="http://www.w3.org/2000/svg">
<path d="M76.3 26H80.98L84.28 40.82H84.46L88.9 26H92.98L97.42 40.82H97.6L100.93 26H105.61L100.27 47.03H94.75L91.03 34.43H90.85L87.13 47.03H81.61L76.3 26ZM108.175 24.74H112.855V33.44H113.095C113.435 32.7 113.985 32.08 114.745 31.58C115.525 31.06 116.465 30.8 117.565 30.8C119.645 30.8 121.085 31.46 121.885 32.78C122.685 34.08 123.085 35.54 123.085 37.16V47H118.405V37.97C118.405 36.93 118.175 36.11 117.715 35.51C117.255 34.91 116.565 34.61 115.645 34.61C114.725 34.61 114.025 34.92 113.545 35.54C113.085 36.16 112.855 36.97 112.855 37.97V47H108.175V24.74ZM131.684 47.27C129.724 47.27 128.204 46.53 127.124 45.05C126.064 43.55 125.534 41.55 125.534 39.05C125.534 36.53 126.084 34.53 127.184 33.05C128.284 31.55 129.804 30.8 131.744 30.8C133.084 30.8 134.114 31.1 134.834 31.7C135.554 32.28 136.054 32.87 136.334 33.47H136.574V31.13H141.284V47H136.574V44.45H136.334C136.034 45.09 135.514 45.72 134.774 46.34C134.054 46.96 133.024 47.27 131.684 47.27ZM133.454 43.52C134.514 43.52 135.304 43.08 135.824 42.2C136.344 41.3 136.604 40.24 136.604 39.02C136.604 37.82 136.344 36.78 135.824 35.9C135.304 35 134.514 34.55 133.454 34.55C132.354 34.55 131.544 34.99 131.024 35.87C130.524 36.73 130.274 37.77 130.274 38.99C130.274 40.23 130.524 41.3 131.024 42.2C131.544 43.08 132.354 43.52 133.454 43.52ZM151.305 34.76V41.12C151.305 41.82 151.335 42.34 151.395 42.68C151.475 43 151.675 43.26 151.995 43.46C152.335 43.66 152.875 43.76 153.615 43.76C153.995 43.76 154.385 43.72 154.785 43.64V46.88C154.585 46.92 154.185 46.96 153.585 47C152.985 47.06 152.385 47.09 151.785 47.09C150.225 47.09 149.065 46.86 148.305 46.4C147.565 45.94 147.105 45.38 146.925 44.72C146.745 44.06 146.655 43.2 146.655 42.14V34.76H144.105V31.13H146.655V26H151.305V31.13H154.785V34.76H151.305ZM179.84 30.08H174.32V47H169.67V30.08H164.15V26H179.84V30.08ZM182.414 24.74H187.094V33.44H187.334C187.674 32.7 188.224 32.08 188.984 31.58C189.764 31.06 190.704 30.8 191.804 30.8C193.884 30.8 195.324 31.46 196.124 32.78C196.924 34.08 197.324 35.54 197.324 37.16V47H192.644V37.97C192.644 36.93 192.414 36.11 191.954 35.51C191.494 34.91 190.804 34.61 189.884 34.61C188.964 34.61 188.264 34.92 187.784 35.54C187.324 36.16 187.094 36.97 187.094 37.97V47H182.414V24.74ZM207.543 47.27C205.863 47.27 204.443 46.89 203.283 46.13C202.143 45.35 201.293 44.34 200.733 43.1C200.193 41.84 199.923 40.49 199.923 39.05C199.923 37.61 200.193 36.27 200.733 35.03C201.293 33.77 202.143 32.75 203.283 31.97C204.443 31.19 205.883 30.8 207.603 30.8C209.843 30.8 211.623 31.51 212.943 32.93C214.263 34.33 214.923 36.37 214.923 39.05V40.34H204.423V40.58C204.423 41.4 204.703 42.11 205.263 42.71C205.843 43.29 206.573 43.58 207.453 43.58C208.133 43.58 208.713 43.43 209.193 43.13C209.673 42.81 210.013 42.39 210.213 41.87H214.803C214.403 43.45 213.573 44.75 212.313 45.77C211.073 46.77 209.483 47.27 207.543 47.27ZM210.453 37.34C210.433 36.26 210.153 35.46 209.613 34.94C209.093 34.42 208.393 34.16 207.513 34.16C206.613 34.16 205.893 34.44 205.353 35C204.833 35.56 204.563 36.34 204.543 37.34H210.453ZM224.513 26H231.473L235.583 37.91H235.673L239.783 26H246.743V47H242.153V32.6H242.033L237.113 47H234.143L229.223 32.6H229.103V47H224.513V26ZM257.055 47.27C255.375 47.27 253.955 46.9 252.795 46.16C251.655 45.42 250.805 44.43 250.245 43.19C249.685 41.95 249.405 40.57 249.405 39.05C249.405 37.55 249.685 36.18 250.245 34.94C250.805 33.68 251.655 32.68 252.795 31.94C253.955 31.18 255.375 30.8 257.055 30.8C258.735 30.8 260.145 31.17 261.285 31.91C262.445 32.65 263.305 33.65 263.865 34.91C264.425 36.15 264.705 37.52 264.705 39.02C264.705 40.52 264.425 41.9 263.865 43.16C263.305 44.4 262.445 45.4 261.285 46.16C260.145 46.9 258.735 47.27 257.055 47.27ZM257.055 43.52C258.095 43.52 258.865 43.09 259.365 42.23C259.865 41.37 260.115 40.29 260.115 38.99C260.115 37.69 259.865 36.63 259.365 35.81C258.865 34.97 258.095 34.55 257.055 34.55C256.015 34.55 255.245 34.97 254.745 35.81C254.245 36.65 253.995 37.71 253.995 38.99C253.995 40.29 254.245 41.37 254.745 42.23C255.265 43.09 256.035 43.52 257.055 43.52ZM266.03 31.13H270.41L273.89 42.29H274.07L277.46 31.13H281.87L276.74 47H271.13L266.03 31.13ZM284.409 31.13H289.059V47H284.409V31.13ZM286.719 28.49C285.999 28.49 285.399 28.25 284.919 27.77C284.439 27.27 284.199 26.67 284.199 25.97C284.199 25.25 284.439 24.65 284.919 24.17C285.399 23.67 285.999 23.42 286.719 23.42C287.439 23.42 288.039 23.67 288.519 24.17C289.019 24.65 289.269 25.25 289.269 25.97C289.269 26.67 289.019 27.27 288.519 27.77C288.039 28.25 287.439 28.49 286.719 28.49ZM299.886 47.27C298.206 47.27 296.786 46.89 295.626 46.13C294.486 45.35 293.636 44.34 293.076 43.1C292.536 41.84 292.266 40.49 292.266 39.05C292.266 37.61 292.536 36.27 293.076 35.03C293.636 33.77 294.486 32.75 295.626 31.97C296.786 31.19 298.226 30.8 299.946 30.8C302.186 30.8 303.966 31.51 305.286 32.93C306.606 34.33 307.266 36.37 307.266 39.05V40.34H296.766V40.58C296.766 41.4 297.046 42.11 297.606 42.71C298.186 43.29 298.916 43.58 299.796 43.58C300.476 43.58 301.056 43.43 301.536 43.13C302.016 42.81 302.356 42.39 302.556 41.87H307.146C306.746 43.45 305.916 44.75 304.656 45.77C303.416 46.77 301.826 47.27 299.886 47.27ZM302.796 37.34C302.776 36.26 302.496 35.46 301.956 34.94C301.436 34.42 300.736 34.16 299.856 34.16C298.956 34.16 298.236 34.44 297.696 35C297.176 35.56 296.906 36.34 296.886 37.34H302.796Z" fill="white"/>
<rect width="61" height="61" rx="30.5" fill="url(#paint0_linear_12_945)"/>
<mask id="mask0_12_945" style="mask-type:alpha" maskUnits="userSpaceOnUse" x="0" y="0" width="61" height="61">
<rect width="61" height="61" rx="30.5" fill="url(#paint1_linear_12_945)"/>
</mask>
<g mask="url(#mask0_12_945)">
<path d="M42.293 41.3675L63.9998 63.0743" stroke="url(#paint2_linear_12_945)" stroke-width="8" stroke-linecap="round"/>
</g>
<circle cx="30" cy="30" r="15" stroke="white" stroke-width="8"/>
<path d="M26 35.3071V24.9548C26 24.1392 26.9238 23.6666 27.5852 24.1439L35.7191 30.0135C36.3143 30.443 36.2594 31.346 35.6166 31.7002L27.4827 36.1829C26.8162 36.5502 26 36.0681 26 35.3071Z" fill="url(#paint3_linear_12_945)"/>
<defs>
<linearGradient id="paint0_linear_12_945" x1="30.5" y1="0" x2="30.5" y2="61" gradientUnits="userSpaceOnUse">
<stop stop-color="#F87946"/>
<stop offset="1" stop-color="#F64E03"/>
</linearGradient>
<linearGradient id="paint1_linear_12_945" x1="30.5" y1="0" x2="30.5" y2="61" gradientUnits="userSpaceOnUse">
<stop stop-color="#F87946"/>
<stop offset="1" stop-color="#F64E03"/>
</linearGradient>
<linearGradient id="paint2_linear_12_945" x1="41.9394" y1="41.7211" x2="63.6462" y2="63.4279" gradientUnits="userSpaceOnUse">
<stop offset="0.163479" stop-color="white"/>
<stop offset="1" stop-color="#E9E9E9"/>
</linearGradient>
<linearGradient id="paint3_linear_12_945" x1="26.6111" y1="29.2635" x2="33.1561" y2="36.7202" gradientUnits="userSpaceOnUse">
<stop stop-color="white"/>
<stop offset="1" stop-color="#E9E8E8"/>
</linearGradient>
</defs>
</svg>
